<svg xmlns="http://www.w3.org/2000/svg" xml:space="preserve" width="16" height="16" data-version="2">
    <path d="M6.26 11.28h-.81L3.1 4.73q-.08-.22-.21-.35-.12-.13-.34-.19l-.27-.09v-.11h3.17v.11l-.34.1q-.25.06-.28.23-.03.16.05.41l1.63 4.83 1.64-4.84q.08-.26.08-.42-.01-.17-.26-.23l-.29-.08v-.11h1.54v.11l-.29.09q-.21.05-.3.19t-.17.36z" paint-order="stroke"/>
    <path d="M10.77 11.45q-.6 0-1.23-.15-.62-.15-1.04-.39l.05-1.5h.11l.34.72q.16.31.33.54.18.24.49.37.22.11.42.15.2.04.46.04.67 0 1.06-.37.39-.36.39-.93 0-.54-.26-.84-.27-.3-.85-.59l-.45-.2q-.95-.42-1.48-.96-.54-.55-.54-1.45 0-.65.34-1.12.34-.47.94-.73.59-.25 1.4-.25.58 0 1.1.16.53.15.91.41l-.07 1.32h-.11l-.45-.82q-.18-.39-.37-.55-.19-.16-.43-.22-.14-.05-.26-.06-.12-.02-.31-.02-.56 0-.95.33-.38.32-.38.87 0 .56.29.9.3.33.87.6l.51.22q1.06.46 1.52.98.46.52.46 1.35 0 .97-.73 1.58-.73.61-2.08.61" paint-order="stroke"/>
</svg>
